<svg width="48" height="70" viewBox="0 0 48 70" fill="none" xmlns="http://www.w3.org/2000/svg">
<path d="M39.7815 58.0238C40.714 52.8851 38.1211 48.6351 38.1666 48.6149C38.2367 48.5275 35.8827 53.2843 38.5666 57.494C36.5215 56.3198 34.5256 55.0113 32.6909 53.5751C32.5052 53.77 32.4312 53.9715 32.2455 54.1664C36.4381 57.4818 41.3282 60.0378 46.7868 61.6666C46.7944 61.4382 46.9138 61.2165 46.9214 60.9881C44.4138 60.2441 42.0048 59.2314 39.6905 58.0642C39.8024 58.0708 39.8024 58.0708 39.7815 58.0238ZM25.0923 49.5767C23.0415 49.2489 21.4987 49.8207 20.7709 50.1436C21.0874 50.7344 24.4499 54.7556 28.6064 54.4306C29.5711 54.3965 30.3198 54.1206 30.9358 53.7911C30.9813 53.7709 31.1177 53.7104 31.1632 53.6902C31.4153 53.5222 31.6674 53.3541 31.8531 53.1592C31.4381 52.8371 29.0991 50.387 25.7386 49.6838C25.4941 49.6235 25.316 49.59 25.0923 49.5767ZM26.728 46.8824C26.7204 47.1107 26.6674 47.3593 26.7053 47.5675C26.7602 47.9369 26.7944 48.2592 26.874 48.5614C28.6234 49.1917 30.0051 50.0976 31.0343 50.8223C31.0419 50.594 31.1158 50.3924 31.0571 50.1372C31.0286 46.2685 28.5892 43.4692 28.2689 42.9925C27.869 43.5637 26.8171 44.8741 26.728 46.8824ZM20.3557 43.0713C18.3372 42.4479 16.7602 42.6974 16.0153 42.859C16.2655 43.4231 18.2519 47.0421 21.6219 48.1348C22.5904 47.9864 23.6916 47.8917 25.0298 48.0857C25.1416 48.0923 25.3406 48.1728 25.4524 48.1795C25.7633 48.2666 25.9414 48.3001 26.1651 48.3133C26.1234 48.2193 26.1063 48.0582 26.1101 47.944C26.0722 47.7358 26.0552 47.5746 26.0627 47.3462C25.3311 46.4332 23.6063 44.3857 20.9983 43.2925C20.7992 43.2121 20.6211 43.1786 20.3557 43.0713ZM22.4482 40.7931C22.4406 41.0215 22.3667 41.223 22.38 41.4984C22.3231 41.8611 22.3364 42.1365 22.3705 42.4588C23.955 43.331 25.1719 44.4788 26.1025 45.4723C26.2011 45.2036 26.2295 45.0222 26.2371 44.7938C26.9251 40.9448 25.0107 37.8564 24.7605 37.2923C24.0744 37.7092 22.9182 38.7845 22.4482 40.7931ZM17.3989 36.2827C17.2245 36.135 17.0255 36.0545 16.7848 35.8801C14.9349 34.9006 13.2992 34.8949 12.5126 34.9625C12.6965 35.4997 14.0669 39.4482 17.1942 41.0986C18.2253 41.0912 19.3189 41.2249 20.604 41.6674C20.7367 41.721 20.8694 41.7747 20.9565 41.8485C21.2219 41.9558 21.4209 42.0363 21.6863 42.1436C21.6446 42.0496 21.673 41.8682 21.7223 41.7339C21.6844 41.5257 21.7583 41.3241 21.7621 41.2099C21.1499 40.0752 19.8136 37.7991 17.3989 36.2827ZM19.2222 34.0113C19.2146 34.2397 19.0952 34.4614 19.0876 34.6898C18.9644 35.0257 18.9114 35.2742 18.8545 35.637C20.295 36.7981 21.3053 38.0937 22.0331 39.1209C22.1733 38.9462 22.1809 38.7178 22.2757 38.5633C23.5816 35.0027 22.2623 31.5378 22.0576 30.9536C21.4625 31.3301 20.0448 32.1839 19.2222 34.0113ZM11.0285 29.0394C11.1327 29.2744 11.1953 29.4154 11.2995 29.6505C11.4417 30.0937 11.7374 30.6375 12.0122 31.1344C12.1619 31.3492 12.2453 31.5372 12.3951 31.7521C12.7779 32.3698 13.3845 33.0007 13.9739 33.4705C14.9766 33.6446 16.0626 34.0066 17.2074 34.6238C17.3401 34.6774 17.4936 34.7781 17.6263 34.8318C17.8007 34.9794 18.0206 35.1069 18.1949 35.2545C18.2442 35.1202 18.2726 34.9388 18.2973 34.8716C18.3049 34.6433 18.3996 34.4887 18.4735 34.2872C18.0603 33.2329 17.1581 30.7081 15.0485 28.775C14.8742 28.6273 14.6543 28.4999 14.4799 28.3522C13.5417 27.5871 12.6585 27.1914 11.8378 26.9366C11.7714 26.9098 11.7051 26.883 11.5724 26.8293C11.5762 26.7152 11.5099 26.6883 11.4189 26.7287C11.1952 26.7154 11.0417 26.6147 10.8844 26.6283C10.7517 26.5746 10.5736 26.5411 10.4617 26.5345L10.4826 26.5815C10.4788 26.6957 10.5413 26.8367 10.5375 26.9509C10.5755 27.1591 10.638 27.3001 10.6759 27.5083C10.7517 27.9246 10.8901 28.482 11.0285 29.0394ZM17.287 26.8258C17.1467 27.0005 17.0728 27.2021 16.9534 27.4238C16.7638 27.7329 16.7316 28.0284 16.6084 28.3643C17.8632 29.7203 18.6213 31.184 19.1634 32.4061C19.3037 32.2314 19.3776 32.0299 19.5179 31.8551C21.3753 28.5562 20.71 24.9699 20.6417 24.3252C19.8722 24.554 18.3749 25.1057 17.287 26.8258ZM9.99161 20.4429C10.0921 20.7921 10.1224 21.2286 10.2646 21.6718C10.4446 22.3232 10.7365 22.9813 11.0284 23.6393C11.1781 23.8541 11.2615 24.0422 11.4113 24.257C11.6236 24.6128 11.8567 25.0157 12.2055 25.311C13.1133 25.6396 14.1255 26.2031 15.13 26.9951C15.3044 27.1427 15.4371 27.1964 15.5243 27.2702C15.674 27.485 15.873 27.5655 16.0682 27.7602C16.072 27.646 16.1668 27.4914 16.1706 27.3773C16.3108 27.2025 16.3393 27.0212 16.434 26.8666C16.2483 25.7115 15.7517 23.1192 14.0344 20.8434C13.8847 20.6285 13.7558 20.4607 13.5606 20.266C12.738 19.3934 11.9287 18.7961 11.2027 18.3868C11.1364 18.36 11.0701 18.3332 10.9374 18.2795C10.871 18.2527 10.8047 18.2259 10.763 18.1319C10.4976 18.0246 10.365 17.9709 10.2323 17.9173C10.0996 17.8636 9.92146 17.8302 9.85512 17.8033C9.85512 17.8033 9.80963 17.8235 9.83048 17.8705C9.85133 17.9175 9.86839 18.0787 9.77362 18.2332C9.81153 18.4414 9.82859 18.6026 9.82101 18.831C9.87219 19.3145 9.92337 19.7981 9.99161 20.4429ZM16.5268 19.344C16.3411 19.5389 16.2672 19.7405 16.1269 19.9152C15.8957 20.1303 15.7061 20.4393 15.583 20.7752C16.5401 22.3195 17.0671 23.9983 17.431 25.1869C17.5921 25.0592 17.666 24.8576 17.8726 24.7097C20.3441 21.8134 20.2209 18.0992 20.2645 17.4611C19.5442 17.5556 17.8972 17.8924 16.5268 19.344ZM10.5071 11.664C10.562 12.0334 10.5469 12.4901 10.5981 12.9737C10.6208 13.6386 10.7762 14.3572 11.0226 15.0354C11.0814 15.2906 11.1648 15.4786 11.269 15.7136C11.4358 16.0896 11.6443 16.5597 11.8566 16.9155C12.7152 17.3784 13.5871 18.1167 14.5177 19.1102C14.6466 19.278 14.6883 19.372 14.7964 19.4929C14.9461 19.7077 15.0541 19.8285 15.2494 20.0232C15.3195 19.9358 15.4351 19.8283 15.418 19.6671C15.5792 19.5394 15.6531 19.3378 15.8142 19.2101C15.7857 18.0415 15.7649 15.2944 14.4608 12.7228C14.3566 12.4878 14.2277 12.3199 14.1234 12.0849C13.4411 11.0375 12.7265 10.2857 12.1162 9.76892C11.9873 9.60109 11.8092 9.56761 11.722 9.49379C11.5476 9.34613 11.3486 9.26565 11.2614 9.19182C11.1287 9.13817 10.9752 9.03752 10.8634 9.03087C10.8634 9.03087 10.8634 9.03087 10.8387 9.09805C10.8596 9.14505 10.8311 9.32642 10.7819 9.46078C10.7326 9.59515 10.6795 9.84369 10.6511 10.0251C10.545 10.5221 10.5052 11.0461 10.5071 11.664ZM17.1901 10.1621C17.3796 9.85299 17.6355 9.57074 17.8251 9.26166C17.9653 9.08694 18.0601 8.9324 18.2003 8.75768C18.5339 8.1597 18.7974 7.64908 18.9736 7.06463C19.0722 6.79591 19.1461 6.59437 19.1537 6.366C19.2238 6.27864 19.2522 6.09728 19.2769 6.03009C19.4531 5.44564 19.5384 4.90155 19.6446 4.40446C19.6483 4.29027 19.6521 4.17609 19.7014 4.04172C19.7791 3.726 19.8322 3.47745 19.7981 3.15508C19.8473 3.02071 19.8549 2.79235 19.8834 2.61099C19.9232 2.08707 19.9175 1.58333 19.908 1.19377C19.9118 1.07959 19.9156 0.965404 19.9648 0.831045C19.9061 0.575848 19.98 0.374313 19.9174 0.233304C19.8265 0.273659 19.599 0.374548 19.4171 0.455259C19.3261 0.495614 19.2105 0.603146 19.1195 0.643502C19.0285 0.683858 18.8466 0.764568 18.7764 0.85193C17.9539 1.32931 17.0081 2.1426 16.2708 3.42592C13.9926 7.24905 15.4786 11.09 15.6663 11.513C16.1211 11.3113 16.6537 10.7938 17.1901 10.1621ZM16.6045 12.2782C16.3732 12.4932 16.1629 12.7553 15.9525 13.0174C16.6329 14.7968 16.8452 16.5027 16.9609 17.7452C17.122 17.6175 17.3039 17.5368 17.5105 17.3889C20.4142 14.9759 21.0112 11.1672 21.142 10.6029C20.4255 10.5832 18.7443 10.5977 17.0916 11.7808C16.9305 11.9085 16.7694 12.0363 16.6045 12.2782Z" fill="#DADADA"/>
</svg>
